<svg version="1.1" xmlns="http://www.w3.org/2000/svg" xmlns:xlink="http://www.w3.org/1999/xlink" x="0px" y="0px" viewBox="0 0 625.8 528.6" style="enable-background:new 0 0 625.8 528.6;" xml:space="preserve">
	<style type="text/css">
		.st3{fill:#FFFFFF;}
		.st4{fill:#333333;}
		.st5{fill:#F1B500;}
	</style>
	<g>
		<g>
			<path class="st3" d="M576.5,167.7C550.7,102.9,501.2,52,437.1,24.4C373.1-3.2,302.1-4.1,237.3,21.7C172.5,47.5,121.6,97,94,161.1
				c-27.6,64.1-28.5,135.1-2.7,199.9c25.8,64.8,75.3,115.7,139.4,143.3c64.1,27.6,135.1,28.5,199.9,2.7
				c64.8-25.8,115.7-75.3,143.3-139.4C601.4,303.5,602.3,232.5,576.5,167.7z M518.7,343.8c-43.8,101.9-162.4,149.1-264.3,105.3
				c-27.4-11.8-50.8-29-69.6-49.8l-39.1-64.4c-17.6-46.9-17.8-100.5,3.5-150.1C193,82.9,311.5,35.7,413.4,79.5
				c27.7,11.9,51.4,29.4,70.3,50.6l38.8,64.6C539.8,241.5,539.9,294.6,518.7,343.8z"/>
			<g>
				<path class="st4" d="M76.7,264.2L76.7,264.2C76.7,264.2,76.7,264.2,76.7,264.2z"/>
				<path class="st5" d="M425.2,280.8l4.2,0.2c81.4,18.2,195.2,45.3,195.2,45.3c4.7-41.5,0.4-60.8,0.4-60.8l-194.9-10.4l-8.5-8.9
					l-5.3-5.8L260,239.4c-0.5-4.5-2.4-7.5-2.4-7.5s-26.3,0-29.9,0c-0.6,1.2-1,2.4-1.3,3.6l-72.2-0.4l0,2.9l-54,0
					c0,0-8.3,12.7-23.4,16.5c0,0.2,0,0.5,0,0.5l-56.3,0c-0.3-7-1.9-9.6-2.9-11.5c-1.4-2.5-2.7-9.7-2.7-9.7s0,0-5.6,0.1
					c-0.3,7.3-1.5,15.3-2.6,20.9c0,0,0,0.1,0,0.1H3v8h3.2c0.2,1,0.3,1.3,0.3,1.3s7,0.6,13.6,0.1c0-0.5,0.1-1.3,0.1-1.3h56.4
					c0,1,0,1.1,0,1.1l77.3,0l0,2.6c0,0,6.1,0.2,17.6,0.3c11.5,0.1,29.2-0.9,47.6,6.1c18.4,7,27.3,0,27.3,0l0,0l53.9,2.3
					c-21.5,77.6-70.8,116.6-70.8,116.6s-0.5,0,6.5,11.4v0l0,0c0,4.6,6.3,10.9,11.5,19.9c63.9-43.5,87.6-123.8,92.9-144.8l-0.1,14
					l0,7.8l0.8,0l-0.5-5.7l6.8,0c0.3,4,1.1,6.7,2.9,8.6c2.4,2.4,6.3,2.9,11.4,2.9c1.5,0,3.2-0.1,5.5-0.1c6.9-0.3,11.4-1.9,13.5-4.9
					c1.6-2.3,1.1-4.6,1-5.1l0.1-2.9c1.8,2.1,4.1,3.6,7.2,3.6c11.1,0.1,17.3,21.6,38.1,57.4c21-7,28.5-18.7,28.5-18.7
					s-13.6-22.6-26.9-38.4C421.2,288.2,422.6,283.4,425.2,280.8z M99.4,251.8l0-3.3l54.6-0.2l0,3.5L99.4,251.8z M380.6,296.3
					c0,0,0.7,2.1-0.8,4.2c-1.8,2.6-6.2,4.1-12.6,4.4c-2.2,0.1-4,0.1-5.4,0.1c-5.8,0-8.8-0.7-10.7-2.5c-2.4-2.4-2.8-7-2.8-13.8
					c0-6.2,0.1-9.5,0.1-11.2l22.8,1c-0.1,0.2-0.2,0.4-0.2,0.7c0,0.7,0.6,1.4,1.5,1.7c0.2,7.6-4.7,13.2-8.9,18
					c11-3.9,11.9-15.1,11.9-18.3c0.6-0.3,1-0.9,1-1.5c0-0.2,0-0.3-0.1-0.5l0.2,0c0.2,2.2,1.2,8.5,4.1,13l-0.2,4.4L380.6,296.3
					L380.6,296.3z"/>
			</g>
			<polygon class="st3" points="483.7,130.1 145.6,334.8 184.7,399.3 522.5,194.7"/>
		</g>
	</g>
</svg>